<?xml version="1.0" encoding="UTF-8"?>
<svg version="1.1" xmlns="http://www.w3.org/2000/svg" width="2048" height="2048">
<path d="M0 0 C675.84 0 1351.68 0 2048 0 C2048 675.84 2048 1351.68 2048 2048 C1372.16 2048 696.32 2048 0 2048 C0 1372.16 0 696.32 0 0 Z " fill="#0D2342" transform="translate(0,0)"/>
<path d="M0 0 C28 1 28 1 34 2 C35.43371121 2.13836618 36.86990953 2.25373153 38.30761719 2.34130859 C39.1041571 2.39161224 39.90069702 2.44191589 40.72137451 2.4937439 C41.57128967 2.54479279 42.42120483 2.59584167 43.296875 2.6484375 C45.16407535 2.76802877 47.03126238 2.887828 48.8984375 3.0078125 C51.78858166 3.19019555 54.67880893 3.37065998 57.56933594 3.546875 C73.12015799 4.50217855 88.54007767 6.0765886 104 8 C105.03110901 8.12749634 106.06221802 8.25499268 107.12457275 8.38635254 C114.39954646 9.28997022 121.66956045 10.22904449 128.9375 11.1875 C130.05554016 11.33484589 131.17358032 11.48219177 132.32550049 11.63400269 C182.73445446 18.30941402 232.54374442 26.82893519 281.98046875 38.796875 C285.331304 39.60675241 288.68712941 40.3857974 292.05078125 41.140625 C305.2929751 44.14269413 318.19321047 48.00232871 331.13427734 52.10229492 C333.69375182 52.90406589 336.2593712 53.6754784 338.83203125 54.43359375 C344.9370645 56.25391025 350.97941475 58.26445409 357.02246094 60.27905273 C358.99567341 60.93605941 360.9704414 61.58823289 362.9453125 62.24023438 C369.18262375 64.30994215 375.35401701 66.4611792 381.43310547 68.96069336 C384.46899538 70.18989094 387.53046287 71.33943774 390.59765625 72.48828125 C431.69334704 87.97702426 471.66492866 106.82691765 509 130 C509.9895166 130.60972656 510.9790332 131.21945312 511.99853516 131.84765625 C536.40943816 146.9298889 559.51992989 163.96091307 581 183 C581.733396 183.64582031 582.46679199 184.29164063 583.22241211 184.95703125 C589.36702023 190.41836334 595.27599099 196.08972414 601.08666992 201.90136719 C602.55955972 203.3720641 604.04030265 204.83453534 605.52148438 206.296875 C611.79080329 212.52975538 617.49359229 219.0801322 623 226 C624.43379063 227.71144777 625.87086566 229.42015413 627.3125 231.125 C649.35753176 258.1541259 670.22884109 292.0471268 679 326 C679.66 326 680.32 326 681 326 C681.07476563 325.45214844 681.14953125 324.90429688 681.2265625 324.33984375 C682.5948212 316.09004862 685.67828558 308.62018645 689 301 C689.42128174 300.02764404 689.42128174 300.02764404 689.85107422 299.03564453 C706.22232926 261.71214449 730.87651195 228.66659953 759.69116211 200.0480957 C761.57188528 198.17816859 763.44156819 196.29767362 765.31054688 194.41601562 C772.23350642 187.48503319 779.27909448 181.04317105 787 175 C788.24322858 173.98724462 789.48439489 172.97194764 790.72265625 171.953125 C848.86588639 124.71175051 916.90864705 91.40044462 987 66 C987.818172 65.70335449 988.63634399 65.40670898 989.47930908 65.10107422 C995.27058418 63.00502613 1001.07025804 60.93342753 1006.875 58.875 C1007.63342194 58.604599 1008.39184387 58.334198 1009.17324829 58.05560303 C1017.9387531 54.93904827 1026.68839544 52.18498707 1035.70019531 49.87304688 C1039.18237869 48.9517471 1042.56529673 47.86376257 1045.96777344 46.68847656 C1102.24153122 27.62408481 1164.50997251 18.66779175 1223.33984375 11.82421875 C1227.60815053 11.32048467 1231.83514953 10.71944781 1236.0703125 9.98828125 C1242.33573052 8.90746421 1248.61736953 8.17862168 1254.9375 7.5 C1256.52401367 7.32404297 1256.52401367 7.32404297 1258.14257812 7.14453125 C1274.9284005 5.3090445 1291.73936714 3.76760745 1308.58251953 2.56738281 C1310.35397704 2.43962256 1312.12514771 2.3078176 1313.89599609 2.171875 C1328.67384066 1.03784376 1343.10998823 1 1358 1 C1358 23.77 1358 46.54 1358 70 C1350.41 70.33 1342.82 70.66 1335 71 C1328.11546894 71.59296297 1321.2462916 72.22295165 1314.375 72.9375 C1312.57102815 73.12034881 1310.76699072 73.30255172 1308.96289062 73.48413086 C1305.4876992 73.83428398 1302.01280018 74.18713782 1298.53808594 74.54199219 C1294.10350754 74.99260589 1289.66677442 75.41415217 1285.22705078 75.81103516 C1264.75163738 77.69909924 1244.36055757 80.39660063 1224 83.25 C1222.92972565 83.39995422 1221.85945129 83.54990845 1220.75674438 83.70440674 C1168.77990693 91.02157854 1115.32099725 99.09346443 1065.1015625 114.75390625 C1062.01035671 115.71385554 1058.90231176 116.57338798 1055.7734375 117.40234375 C993.21288557 134.06797834 932.95393863 160.73245174 879.125 196.75 C878.474245 197.18442413 877.82348999 197.61884827 877.15301514 198.06643677 C867.46048834 204.54754134 857.96263312 211.19385981 848.86816406 218.50097656 C846.93153583 220.05493597 844.97846533 221.58646255 843.0234375 223.1171875 C829.31125842 233.94862875 816.40141124 245.74145167 805 259 C804.04673828 260.02867187 804.04673828 260.02867187 803.07421875 261.078125 C792.46692417 272.55696082 784.07176011 285.67546759 776 299 C779.68467699 296.29289038 783.31515905 293.57560835 786.81640625 290.6328125 C807.54946203 273.23071439 831.29265916 258.92358536 855 246 C856.11068848 245.39381836 857.22137695 244.78763672 858.36572266 244.16308594 C899.09305628 222.12922215 942.50719248 204.4875243 986.78735352 190.98901367 C989.67116929 190.10123058 992.54178062 189.18230152 995.41015625 188.24609375 C1026.66320054 178.17012787 1058.91886775 170.90615371 1091 164 C1092.34391291 163.7088223 1093.68782567 163.4176439 1095.03173828 163.12646484 C1120.38927039 157.65113482 1145.89518299 153.08520794 1171.58837891 149.48510742 C1175.00176204 148.99974945 1178.40874535 148.48093569 1181.81640625 147.95703125 C1241.49030862 139.01263844 1302.28660296 134.16628678 1362.5 130.6875 C1363.79558838 130.61104248 1365.09117676 130.53458496 1366.42602539 130.45581055 C1377.65179597 129.87170899 1388.71093733 130 1400 130 C1400 148.15 1400 166.3 1400 185 C1391.275625 185.185625 1391.275625 185.185625 1382.375 185.375 C1354.60799693 185.92633884 1354.60799693 185.92633884 1326.98046875 188.51171875 C1321.43036323 189.25442483 1315.83628981 189.47729996 1310.25 189.8125 C1296.79337571 190.6668346 1283.36652487 191.79006288 1269.9375 193 C1268.9930603 193.08367828 1268.04862061 193.16735657 1267.07556152 193.25357056 C1257.63280707 194.09323449 1248.2653453 195.01176482 1238.90649414 196.55322266 C1234.96458005 197.15916157 1231.01558243 197.52287623 1227.04492188 197.88476562 C1172.79993733 202.86874464 1117.97015051 212.28716388 1065 225 C1063.56223282 225.34074106 1062.12440451 225.68122426 1060.68652344 226.02148438 C1041.44970327 230.59003797 1022.47449987 235.66731875 1003.67089844 241.80664062 C1001.15867713 242.62332975 998.64542345 243.43104568 996.12597656 244.22460938 C941.07738154 261.56615915 885.3178913 286.29119655 839 321 C837.99195313 321.73476562 836.98390625 322.46953125 835.9453125 323.2265625 C814.64317891 338.88501395 793.52260198 357.46676643 778 379 C780.85430221 377.59549567 783.64843657 376.11020376 786.4296875 374.56640625 C833.92150569 348.3323254 883.91962126 328.84536681 936.24609375 314.60546875 C940.28812013 313.50149138 944.28028407 312.28848632 948.2734375 311.01953125 C955.49362271 308.77738073 962.80600976 307.11735504 970.1875 305.5 C971.45658203 305.21769531 972.72566406 304.93539063 974.03320312 304.64453125 C976.64827959 304.06340315 979.26376208 303.48466604 981.88012695 302.90942383 C984.73450315 302.28113926 987.58689518 301.64461897 990.43823242 301.00268555 C1036.90329983 290.55614154 1084.28478068 283.03800666 1131.68115234 278.42382812 C1136.38993306 277.96530838 1141.09518104 277.47428199 1145.80078125 276.984375 C1200.45459848 271.3274921 1200.45459848 271.3274921 1226.00341797 270.34082031 C1231.30799726 270.12413173 1236.53853259 269.66042236 1241.8125 269.0625 C1254.04852011 267.69278665 1266.35603882 267.2612427 1278.6496582 266.69750977 C1280.32764339 266.62009893 1282.00562202 266.54254585 1283.68359375 266.46484375 C1284.50458557 266.42712357 1285.32557739 266.38940338 1286.17144775 266.35054016 C1290.59047742 266.14029531 1294.99040162 265.85701396 1299.3984375 265.47265625 C1308.64161852 264.71650933 1317.91898961 264.67073782 1327.1875 264.5 C1330.88938802 264.43008525 1334.59120067 264.35725336 1338.29296875 264.28125 C1339.23619995 264.26219101 1340.17943115 264.24313202 1341.15124512 264.22349548 C1347.22228903 264.09054383 1353.28552822 263.87335905 1359.35227966 263.6111908 C1374.78257394 262.94773045 1390.18223931 262.8851752 1405.625 262.9375 C1414.32875 262.958125 1423.0325 262.97875 1432 263 C1432 280.82 1432 298.64 1432 317 C1426.88757812 317.13277344 1421.77515625 317.26554687 1416.5078125 317.40234375 C1413.20832854 317.48875735 1409.90884763 317.57526684 1406.609375 317.66210938 C1401.40790081 317.79900407 1396.20642044 317.93560277 1391.00488281 318.07006836 C1366.68326284 318.69576208 1366.68326284 318.69576208 1342.3671875 319.50390625 C1341.38654327 319.53910873 1340.40589905 319.57431122 1339.39553833 319.61058044 C1334.44196051 319.80486315 1329.51143489 320.10358549 1324.57006836 320.50415039 C1318.21826268 321.01140654 1311.88034696 321.25704523 1305.51171875 321.4296875 C1303.11660366 321.50107213 1300.72150328 321.57295153 1298.32641602 321.64526367 C1297.08304474 321.6821933 1295.83967346 321.71912292 1294.55862427 321.75717163 C1253.40418211 323.00982085 1212.49671081 325.74292245 1171.5 329.5 C1170.67718159 329.5751672 1169.85436317 329.6503344 1169.00661087 329.72777939 C1149.62850614 331.49961376 1130.2834697 333.36393557 1111 336 C1109.64733032 336.18363098 1109.64733032 336.18363098 1108.26733398 336.37097168 C1101.83895384 337.24939277 1095.41793062 338.1733872 1089 339.125 C1088.01618347 339.27073456 1087.03236694 339.41646912 1086.01873779 339.56661987 C1055.0870744 344.18147673 1024.14352079 349.5286337 993.83251953 357.29394531 C989.55755655 358.35955408 985.26041766 359.32249706 980.96313477 360.29345703 C969.53880926 362.87703269 958.22229034 365.64464431 947 369 C945.95005859 369.31308105 944.90011719 369.62616211 943.81835938 369.94873047 C904.46035233 381.75943628 866.12275638 396.33537695 829.41552734 414.83935547 C827 416 827 416 824 417 C824.55047926 417.00008822 825.10095852 417.00017644 825.66811896 417.00026734 C885.58045467 417.01004597 945.49278715 417.02598898 1005.40510559 417.07429504 C1006.74684517 417.07537422 1006.74684517 417.07537422 1008.1156906 417.0764752 C1027.55393308 417.09214675 1046.99217446 417.1089289 1066.43041499 417.12685562 C1075.96248025 417.13563971 1085.49454573 417.1441783 1095.02661133 417.15258789 C1095.97518264 417.15342894 1096.92375396 417.15426999 1097.90106986 417.15513652 C1128.66477298 417.18229792 1159.42845596 417.1932382 1190.19217013 417.19579524 C1221.79742125 417.1985077 1253.40262138 417.21752766 1285.0078488 417.25716115 C1289.46857882 417.26274735 1293.92930905 417.2681465 1298.39003944 417.27343178 C1299.26800288 417.27447781 1300.14596632 417.27552385 1301.05053472 417.27660158 C1315.20162265 417.2929801 1329.35265973 417.29209163 1343.50375308 417.28479717 C1357.7193171 417.27783613 1371.93477503 417.28894417 1386.15031054 417.3186629 C1394.60323735 417.33578077 1403.05590283 417.33887808 1411.5088319 417.32217421 C1417.81015978 417.31124444 1424.11117131 417.32618757 1430.4124525 417.35143773 C1432.96971902 417.35758551 1435.52702245 417.35518245 1438.08427026 417.34362926 C1441.54593914 417.32920665 1445.00614635 417.34519375 1448.46773052 417.36914349 C1449.47335481 417.35761276 1450.4789791 417.34608204 1451.51507685 417.3342019 C1456.21421967 417.39881439 1458.30406874 417.46121379 1462.11911607 420.41480279 C1463.94275576 422.92132016 1464.62544793 423.93052277 1464.62818909 426.95314026 C1464.64084305 427.70309265 1464.65349701 428.45304504 1464.66653442 429.22572327 C1464.65484222 430.03367844 1464.64315002 430.84163361 1464.63110352 431.67407227 C1464.63825882 432.53644501 1464.64541412 433.39881775 1464.65278625 434.287323 C1464.66966158 437.1308936 1464.65027951 439.97288519 1464.62890625 442.81640625 C1464.62973498 444.79508088 1464.63219452 446.77375543 1464.63621521 448.75242615 C1464.63907231 452.89595298 1464.62437906 457.038939 1464.59692383 461.18237305 C1464.56281905 466.4945745 1464.56886756 471.80581034 1464.5875864 477.1180582 C1464.59815172 481.2024491 1464.58922318 485.28661506 1464.57420158 489.37098503 C1464.56901738 491.32980621 1464.56950446 493.28865085 1464.57574654 495.24746895 C1464.58119395 497.98393457 1464.56084012 500.71901452 1464.53344727 503.45532227 C1464.53997314 504.26530167 1464.54649902 505.07528107 1464.55322266 505.9098053 C1464.4917918 509.51679594 1464.32958271 511.57314868 1462.09165955 514.47154236 C1459.10061257 516.65721766 1457.48273044 517.12474721 1453.83549577 517.12140518 C1452.51556726 517.12385155 1452.51556726 517.12385155 1451.16897354 517.12634733 C1450.19436909 517.12303789 1449.21976463 517.11972844 1448.21562672 517.1163187 C1447.18213151 517.11676415 1446.1486363 517.11720959 1445.08382306 517.11766854 C1441.58009948 517.11797298 1438.07642478 517.11110621 1434.57270813 517.10438538 C1432.05159321 517.10322475 1429.53047805 517.10252323 1427.00936288 517.10224432 C1421.50691683 517.10068806 1416.00448603 517.09609446 1410.50204468 517.08891487 C1402.3196706 517.07830733 1394.13730071 517.07353051 1385.95492073 517.07033008 C1382.05890086 517.06880503 1378.16288109 517.06708444 1374.26686132 517.06532085 C1373.48080297 517.06496642 1372.69474461 517.06461199 1371.88486631 517.06424681 C1366.17185452 517.06155661 1360.45884391 517.05782232 1354.74583304 517.0536319 C1331.72199129 517.03689651 1308.69817914 517.03335704 1285.67433243 517.03989791 C1283.06368146 517.04063625 1280.45303048 517.04133547 1277.84237949 517.04202367 C1269.01665689 517.04436324 1260.19093436 517.04688707 1251.36521184 517.04953277 C1233.16315244 517.05497767 1214.96109317 517.0600664 1196.7590332 517.06323242 C1195.84567056 517.06339831 1194.93230792 517.06356419 1193.99126762 517.0637351 C1164.37042745 517.06894496 1134.74965341 517.05072816 1105.12882917 517.02143666 C1074.69009573 516.99148096 1044.25146465 516.98789093 1013.81272747 517.01650819 C1009.51570249 517.02052944 1005.21867728 517.02423421 1000.92165184 517.02773857 C999.65306714 517.02878447 999.65306714 517.02878447 998.35885447 517.0298515 C984.73450375 517.04027802 971.11032677 517.0225913 957.48600748 516.99426228 C943.79711244 516.96635476 930.1084629 516.96721298 916.41957102 516.99767197 C908.28237191 517.01488259 900.14589781 517.00966998 892.00876095 516.97264478 C885.93895298 516.94746599 879.87001479 516.9638076 873.80021133 516.99652832 C871.33986511 517.00324247 868.87943763 516.99631685 866.41917757 516.9746585 C863.08266302 516.94723943 859.74994933 516.9687503 856.41357899 517.00279331 C855.45068037 516.9830957 854.48778175 516.96339809 853.49570438 516.94310358 C849.51631875 517.02851517 847.00070006 517.17723266 843.86216875 519.75770723 C840.86239001 523.12980964 838.27260464 526.72201497 836.19140625 530.734375 C835.75876465 531.54986816 835.32612305 532.36536133 834.88037109 533.20556641 C834.44547363 534.04522949 834.01057617 534.88489258 833.5625 535.75 C822.77947993 555.88838747 810.54593102 573.60914989 787.8125 580.75 C781.2536594 582.67184086 774.70603029 583.14890501 767.90089417 583.14717102 C767.11399309 583.15084771 766.32709201 583.1545244 765.51634544 583.1583125 C762.89443511 583.16927551 760.27256451 583.17318058 757.65063477 583.17700195 C755.76425554 583.18327232 753.87787753 583.18991962 751.99150085 583.19691467 C745.80814463 583.21789403 739.62478834 583.22831319 733.44140625 583.23828125 C731.30612615 583.24233147 729.17084617 583.24644847 727.03556633 583.25063133 C716.99863122 583.26967167 706.96170341 583.28390362 696.92475373 583.2922433 C685.37142378 583.30200352 673.81828604 583.32829622 662.26502377 583.36874419 C653.31438656 583.39899564 644.36380417 583.41372082 635.41311687 583.41702431 C630.07723534 583.41936498 624.7415594 583.4281964 619.40573311 583.45348549 C614.37823919 583.47692894 609.35108388 583.48093463 604.32354927 583.47072411 C602.49032458 583.47023253 600.65708227 583.47643977 598.82390976 583.49028015 C578.32949742 583.63620672 560.42203598 579.8633481 545.1328125 565.1640625 C544.07707031 564.09285156 544.07707031 564.09285156 543 563 C542.46117187 562.47148438 541.92234375 561.94296875 541.3671875 561.3984375 C534.6441665 554.23456266 530.04086906 544.77911883 525.375 536.19921875 C524.71806152 534.99519409 524.71806152 534.99519409 524.04785156 533.7668457 C523.20249227 532.20891022 522.36545332 530.64642194 521.53808594 529.07885742 C521.14911133 528.35931885 520.76013672 527.63978027 520.359375 526.8984375 C520.02389648 526.26599121 519.68841797 525.63354492 519.34277344 524.98193359 C516.07972825 520.03020329 516.07972825 520.03020329 510.88545871 517.53795904 C508.18224621 517.36096303 505.51857158 517.34693568 502.80966187 517.38311005 C501.76872918 517.37715043 500.7277965 517.37119082 499.65532041 517.36505061 C496.14400936 517.35107989 492.63381905 517.3729397 489.12255859 517.39440918 C486.58917613 517.39168013 484.05579524 517.38674297 481.52242088 517.37977934 C476.00240859 517.36961887 470.48274426 517.37499055 464.96276093 517.39388847 C456.75454974 517.42187311 448.54651797 517.42116738 440.33827084 517.41430636 C426.53009809 517.40347867 412.72203201 517.41520078 398.91387939 517.4389801 C380.05985338 517.4711466 361.20592872 517.47063295 342.3518827 517.46133965 C333.57181828 517.45705571 324.79175338 517.45437416 316.01168823 517.45211029 C315.13270192 517.45188182 314.25371561 517.45165335 313.34809335 517.45141796 C292.42150961 517.44635125 271.49493843 517.45697927 250.56835938 517.47021484 C249.65259419 517.47078823 248.736829 517.47136161 247.79331335 517.47195237 C233.86220848 517.48069508 219.9311042 517.49025513 206 517.5 C191.14388049 517.51039193 176.28776086 517.52048336 161.43164062 517.52978516 C160.51636324 517.53036405 159.60108586 517.53094294 158.6580728 517.53153937 C137.76815012 517.5446669 116.87823865 517.55331952 95.98831177 517.54788971 C94.67194262 517.54755029 94.67194262 517.54755029 93.32898016 517.54720402 C84.56870273 517.54484275 75.80842595 517.54169681 67.04814927 517.5373788 C48.2135584 517.52826898 29.3791131 517.53296138 10.54454511 517.5653968 C-3.18309625 517.58882958 -16.91065335 517.59524564 -30.63831091 517.58377111 C-38.80023531 517.57755393 -46.96186723 517.58556719 -55.12374759 517.61350976 C-61.20820339 517.63283798 -67.29233697 517.62635062 -73.3768127 517.60962588 C-75.84578644 517.60696621 -78.31478646 517.61288066 -80.78371549 517.62797683 C-84.12619857 517.64722451 -87.46721119 517.63602636 -90.80966187 517.61688995 C-91.78016566 517.62984991 -92.75066946 517.64280987 -93.75058246 517.65616256 C-98.28819851 517.5981024 -100.35797538 517.47509133 -104.09721375 514.70809507 C-106.70425362 510.99768786 -106.70189981 507.71801566 -106.64697266 503.34179688 C-106.65573425 502.48103043 -106.66449585 501.62026398 -106.67352295 500.7334137 C-106.69548812 497.89467618 -106.68097474 495.05750271 -106.6640625 492.21875 C-106.66743147 490.2424693 -106.67228476 488.26619061 -106.67855835 486.28991699 C-106.68592577 482.1505966 -106.67522826 478.01181616 -106.65185547 473.87255859 C-106.6233679 468.56929293 -106.63977256 463.26729243 -106.66971779 457.96407318 C-106.68779421 453.88391606 -106.68203112 449.8040584 -106.66907883 445.72389221 C-106.66574577 443.76868032 -106.66982835 441.81344115 -106.68147659 439.85826111 C-106.69419097 437.12417699 -106.67480089 434.39213527 -106.64697266 431.65820312 C-106.66215439 430.44862694 -106.66215439 430.44862694 -106.67764282 429.21461487 C-106.608608 425.54962986 -106.22540397 423.32434017 -104.11858445 420.29277784 C-99.62064333 416.98589938 -95.92054377 417.30662026 -90.46773052 417.36914349 C-89.38984401 417.36168589 -88.3119575 417.3542283 -87.20140776 417.34654471 C-83.56448533 417.32753063 -79.92859451 417.34433258 -76.29167175 417.36076355 C-73.66810225 417.35445637 -71.04453725 417.34595629 -68.42098123 417.33544332 C-62.70411224 417.31608264 -56.98747319 417.31530005 -51.27058601 417.32659721 C-42.76981261 417.34331188 -34.26924795 417.33145504 -25.76848527 417.31368351 C-11.46961824 417.2846028 2.82917035 417.27878315 17.12806129 417.28615379 C31.28871822 417.2933774 45.44931102 417.29030326 59.60996056 417.27343178 C60.48994706 417.27238913 61.36993357 417.27134648 62.27658633 417.27027224 C66.74547025 417.26492359 71.21435391 417.25939054 75.68323752 417.25378648 C107.34831513 417.21440979 139.0133666 417.19818861 170.6784668 417.19555664 C201.44345581 417.19294657 232.2084112 417.17986555 262.97338867 417.15258789 C263.92145655 417.15175147 264.86952442 417.15091504 265.84632162 417.15005327 C275.36708265 417.14164208 284.88784348 417.13301779 294.40860418 417.12423737 C313.80403323 417.10635497 333.1994634 417.08989504 352.59489441 417.07429504 C353.48669343 417.073576 354.37849244 417.07285697 355.29731567 417.07211614 C414.86486568 417.02425113 474.43243303 417.00954649 534 417 C531.47699098 415.73041513 528.95310924 414.46261797 526.42871094 413.19580078 C525.72306 412.84048782 525.01740906 412.48517487 524.29037476 412.11909485 C517.70186337 408.81583133 511.01951319 405.79177987 504.25 402.875 C503.63136078 402.60741882 503.01272156 402.33983765 502.37533569 402.06414795 C487.03157581 395.4412518 471.45601295 389.41119949 455.83984375 383.46533203 C452.67890687 382.26153804 449.52575096 381.03883606 446.375 379.80859375 C435.66662701 375.67826863 424.74890879 372.56183783 413.67578125 369.55859375 C409.51785216 368.4298877 405.40910218 367.21189901 401.3125 365.875 C394.09208579 363.61145745 386.71810796 362.05256581 379.3359375 360.41796875 C373.55167043 359.13492316 367.78724045 357.77481102 362.02246094 356.40722656 C337.88431021 350.69692811 313.62666077 346.1371171 289.17253113 342.0405426 C284.974768 341.33648843 280.78096059 340.61395119 276.58984375 339.87109375 C234.62987992 332.49654791 191.80110719 329.18989987 149.375 325.75 C148.3672049 325.66709717 147.35940979 325.58419434 146.32107544 325.4987793 C134.23539605 324.51133246 122.16729363 323.75493856 110.04672241 323.35418701 C105.38564288 323.19104848 100.85708359 322.87341745 96.23187256 322.23797607 C90.97697047 321.67766587 85.6737494 321.64983449 80.39453125 321.5 C78.38343289 321.43790135 76.37233459 321.37580078 74.36123943 321.31359863 C71.55219195 321.22762729 68.74304877 321.14504855 65.93389893 321.0625 C60.40948083 320.8997413 54.88520688 320.73219296 49.36100197 320.56236267 C48.00523345 320.52069162 46.64945819 320.47923958 45.29367638 320.43800354 C37.25575388 320.19230566 29.22588057 319.88991095 21.1953125 319.46875 C10.00762819 318.88977635 -1.18378644 318.72392077 -12.38400269 318.5541687 C-32.9339725 318.24090966 -53.462293 317.77710243 -74 317 C-74 299.18 -74 281.36 -74 263 C-33.76559053 262.78080528 6.33949655 262.98493657 46.54138184 264.84179688 C50.05374931 265.00245859 53.56636376 265.15625901 57.07910156 265.30859375 C90.78481434 266.78282358 124.36469915 269.15194502 157.97053528 272.12135315 C164.9430962 272.73715188 171.9168154 273.32850148 178.89453125 273.8828125 C192.47637596 274.9644721 206.03248737 276.09341945 219.54954529 277.83691406 C225.90555972 278.64802876 232.2617917 279.3289261 238.64074707 279.93096924 C255.80072989 281.5773067 272.75944665 284.11229495 289.76760483 286.88644028 C292.03962105 287.25645254 294.31205739 287.62377895 296.58462524 287.99038696 C328.80228583 293.19112379 360.74151571 298.91065914 392.45361328 306.65762329 C396.21796587 307.57565833 399.98735396 308.45931958 403.76953125 309.30078125 C417.6715958 312.41367489 431.1797648 316.63939683 444.74609375 320.97021484 C447.43927518 321.82254372 450.13646375 322.6510408 452.84375 323.45703125 C487.1360783 333.73505903 520.17580644 347.95738395 552.1875 363.875 C552.89166046 364.22381226 553.59582092 364.57262451 554.32131958 364.93200684 C563.5251 369.50798025 572.33994023 374.45704423 581 380 C567.54501815 363.20474287 552.94046938 347.33020541 536 334 C534.29111141 332.56316013 532.58279321 331.12564165 530.875 329.6875 C485.31770808 292.51894455 429.43203814 267.79826237 374.42211914 248.22119141 C372.08987518 247.38892457 369.76104339 246.54704812 367.43530273 245.69677734 C360.08745763 243.02309686 352.73398604 240.66704149 345.1875 238.625 C342.99466317 238.02390609 340.80195838 237.42233027 338.609375 236.8203125 C337.50787109 236.51899414 336.40636719 236.21767578 335.27148438 235.90722656 C332.15755037 235.04369084 329.05444322 234.14986566 325.953125 233.2421875 C302.93390038 226.54364002 279.49058272 221.81134789 255.98046875 217.19140625 C250.78855721 216.16703535 245.61209381 215.07763282 240.43603516 213.97631836 C232.04383733 212.19279594 223.71762523 210.49107186 215.1953125 209.45703125 C212.67136904 209.09602711 210.25373094 208.63625193 207.765625 208.1015625 C200.61873862 206.64264601 193.38392836 205.80388997 186.15228271 204.88400269 C181.86620923 204.33875932 177.58145539 203.78340262 173.296875 203.2265625 C172.46586273 203.11865891 171.63485046 203.01075531 170.77865601 202.89958191 C165.12988886 202.16101089 159.50010875 201.33906986 153.875 200.4375 C89.53915091 190.43874496 23.06617377 186.34852174 -42 185 C-42 166.85 -42 148.7 -42 130 C-29.68736424 130 -17.46763788 130.01002627 -5.1875 130.625 C-4.39449493 130.66368195 -3.60148987 130.70236389 -2.78445435 130.74221802 C16.19649102 131.69615286 35.12841445 133.32748539 54.0625 134.9375 C54.81553532 135.00143196 55.56857063 135.06536392 56.3444252 135.13123322 C114.73053569 140.09465794 114.73053569 140.09465794 135.8125 143 C145.32422307 144.27226099 154.83628207 145.45005738 164.375 146.5 C175.78755258 147.78228013 187.09470435 149.497569 198.41845703 151.40234375 C201.65736473 151.94282405 204.89791846 152.47088456 208.13969421 152.99375916 C288.37555835 165.94125506 369.27874443 184.39230121 444 217 C444.69381775 217.30143921 445.3876355 217.60287842 446.10247803 217.91345215 C473.679464 229.91095152 500.24148849 243.44453525 526 259 C526.86915039 259.52480957 527.73830078 260.04961914 528.63378906 260.59033203 C538.55234892 266.62147486 548.00984147 273.04661111 557.21484375 280.1171875 C561.88611135 283.70308997 566.69919099 287.07734953 571.5234375 290.453125 C576.16450467 293.77425563 580.56667086 297.40947963 585 301 C582.75087762 297.6361929 580.49422488 294.27756725 578.23120117 290.9230957 C577.46621702 289.78704549 576.70311978 288.64972185 575.94213867 287.51098633 C569.18208089 277.39994155 561.8592467 267.9050885 553.5625 259 C552.62980969 257.99646411 551.69752743 256.99254883 550.765625 255.98828125 C550.30607422 255.49408691 549.84652344 254.99989258 549.37304688 254.49072266 C547.15590942 252.08356737 544.99082103 249.6297587 542.8125 247.1875 C539.49414565 243.54249515 536.13642448 240.15651174 532.36328125 236.98828125 C530.45871363 235.38592602 528.59050596 233.75854184 526.73046875 232.10546875 C517.83594284 224.22980935 508.63952854 216.94088992 499 210 C498.22495117 209.4416748 497.44990234 208.88334961 496.65136719 208.30810547 C469.79185582 189.05287753 441.48674626 172.88129274 412 158 C411.15260254 157.57090332 410.30520508 157.14180664 409.43212891 156.69970703 C382.42790721 143.13789007 353.65963188 133.38979293 325 124 C324.22633087 123.74616547 323.45266174 123.49233093 322.6555481 123.23080444 C310.97437117 119.41776218 299.22435152 116.07343203 287.3125 113.0625 C286.47450867 112.84934143 285.63651733 112.63618286 284.77313232 112.41656494 C256.38385962 105.20677131 227.72501977 99.4388875 198.96020508 93.953125 C195.63632601 93.31826496 192.31664368 92.66554888 188.9987793 92 C175.12976792 89.24414592 161.20062529 87.2435542 147.1875 85.375 C144.96152101 85.0734147 142.73560922 84.771333 140.50976562 84.46875 C130.18321675 83.06957494 119.85279718 81.71197122 109.51000977 80.43847656 C106.11561475 80.0144428 102.72579724 79.56421294 99.3359375 79.10546875 C81.6786274 76.75345787 63.98546777 74.96410618 46.25 73.3125 C45.09908875 73.20408783 43.94817749 73.09567566 42.76239014 72.98397827 C39.38892837 72.66767302 36.01491892 72.35807076 32.640625 72.05078125 C31.66415009 71.95926788 30.68767517 71.86775452 29.68161011 71.77346802 C19.78406225 70.88982212 9.95310983 70.49765549 0 70 C0 46.9 0 23.8 0 0 Z " fill="#FDFDFD" transform="translate(345,1188)"/>
<path d="M0 0 C2.88760882 1.07512503 5.39933576 2.53483575 8.05712891 4.09570312 C8.62966904 4.43065292 9.20220917 4.76560272 9.792099 5.11070251 C11.6702234 6.21213983 13.54354188 7.32145068 15.41650391 8.43164062 C16.73069969 9.20632122 18.04490883 9.98097916 19.35913086 10.75561523 C30.4077916 17.28627019 41.29213365 24.06642415 52.14794922 30.91210938 C57.48815257 34.26377372 62.85810585 37.56696243 68.22900391 40.86914062 C69.85588135 41.86953369 69.85588135 41.86953369 71.515625 42.89013672 C78.65849638 47.27727399 85.81536757 51.6410129 92.97900391 55.99414062 C105.74484829 63.75223194 118.45719397 71.59489419 131.11181641 79.53320312 C142.04894889 86.3932108 153.02524116 93.16748429 164.11181641 99.78320312 C177.98081239 108.06311927 191.73966157 116.52489307 205.45874023 125.05029297 C211.36882063 128.71515641 217.31826909 132.3083077 223.29150391 135.86914062 C229.70663331 139.69436138 236.05595468 143.60418436 242.35400391 147.61914062 C249.71590793 152.31167566 257.1685646 156.83495073 264.66650391 161.30664062 C271.995088 165.67833772 279.28456077 170.09229998 286.47900391 174.68164062 C297.1839659 181.50681121 308.05324434 188.05867951 318.91558838 194.62886047 C328.34577904 200.33302281 337.7574541 206.06769001 347.16650391 211.80664062 C348.12484131 212.39082764 348.12484131 212.39082764 349.10253906 212.98681641 C354.13378753 216.05675509 359.14756686 219.15115262 364.11572266 222.32226562 C374.038004 228.64832932 384.06351792 234.77514764 394.16650391 240.80664062 C404.96911873 247.25581274 415.6695929 253.83580586 426.27490234 260.60595703 C428.95112449 262.30467419 431.65067806 263.96397114 434.35400391 265.61914062 C448.79185401 274.47410887 463.22236756 283.3439144 477.24072266 292.85351562 C479.84081325 294.58922363 482.47018113 296.22586512 485.16650391 297.80664062 C484.57660301 301.64872438 483.44859974 304.47676668 481.53369141 307.84960938 C480.98253662 308.82752441 480.43138184 309.80543945 479.86352539 310.81298828 C479.2622583 311.86276855 478.66099121 312.91254883 478.04150391 313.99414062 C477.41767822 315.0954834 476.79385254 316.19682617 476.15112305 317.33154297 C471.0580854 326.3029634 465.90088618 335.23796363 460.73144531 344.16552734 C455.85950173 352.58209358 451.05670947 361.03602946 446.28930664 369.51220703 C445.78987549 370.39956543 445.29044434 371.28692383 444.77587891 372.20117188 C444.34243164 372.97307861 443.90898438 373.74498535 443.46240234 374.5402832 C443.03475586 375.28818115 442.60710938 376.0360791 442.16650391 376.80664062 C441.49796387 378.18662231 441.49796387 378.18662231 440.81591797 379.59448242 C439.16650391 381.80664062 439.16650391 381.80664062 436.85327148 382.33789062 C433.38378708 381.65187535 431.14236516 380.23649943 428.17822266 378.30664062 C427.02024958 377.56514142 425.86187203 376.82427354 424.703125 376.08398438 C424.11513123 375.7035498 423.52713745 375.32311523 422.92132568 374.93115234 C420.20740793 373.19203994 417.44659355 371.53292419 414.68603516 369.86914062 C413.59822754 369.21018799 412.51041992 368.55123535 411.38964844 367.87231445 C410.26413574 367.19064209 409.13862305 366.50896973 407.97900391 365.80664062 C389.66709393 354.70096394 371.3885734 343.54751805 353.33935547 332.01806641 C336.93664149 321.54201018 320.39461304 311.30176107 303.74584961 301.22241211 C291.51271815 293.81531371 279.33441121 286.32041778 267.16650391 278.80664062 C266.24820801 278.23993652 265.32991211 277.67323242 264.38378906 277.08935547 C256.41349612 272.16940354 248.44823113 267.241886 240.51416016 262.26367188 C229.18940331 255.15903403 217.81696396 248.14251457 206.37741089 241.22473145 C198.26537381 236.3176464 190.19430501 231.35077006 182.16650391 226.30664062 C172.89013621 220.47871077 163.55041796 214.76390974 154.17837524 209.09188843 C146.54621634 204.47261901 138.93192717 199.82709926 131.35400391 195.11914062 C124.25143008 190.70666664 117.12567408 186.33484212 109.97900391 181.99414062 C98.45327161 174.99260965 86.96738777 167.92732607 75.48681641 160.85205078 C72.15183114 158.79760177 68.81563502 156.74513414 65.47900391 154.69335938 C56.34777864 149.07832325 47.21655809 143.4632434 38.09936523 137.82543945 C36.41143176 136.78193987 34.72248658 135.74007479 33.0324707 134.69995117 C28.22068744 131.73060311 23.45071055 128.70574082 18.70556641 125.63085938 C17.61711426 124.93226807 16.52866211 124.23367676 15.40722656 123.51391602 C13.28702639 122.15161473 11.17434172 120.77752707 9.0703125 119.39038086 C8.11205566 118.77751221 7.15379883 118.16464355 6.16650391 117.53320312 C5.32087891 116.98229004 4.47525391 116.43137695 3.60400391 115.86376953 C0.55681905 114.54222401 -0.71516528 114.74169606 -3.83349609 115.80664062 C-6.31642848 117.07967492 -6.31642848 117.07967492 -8.79833984 118.72851562 C-9.7517627 119.3351001 -10.70518555 119.94168457 -11.6875 120.56665039 C-12.70505371 121.22334717 -13.72260742 121.88004395 -14.77099609 122.55664062 C-22.75686484 127.63564347 -30.78101729 132.60461935 -38.95849609 137.36914062 C-47.27345805 142.23071112 -55.42116126 147.31091919 -63.52685547 152.51269531 C-72.83016327 158.4727296 -82.26414494 164.20735576 -91.71875 169.92333984 C-97.36462669 173.337064 -103.00550852 176.75902219 -108.64599609 180.18164062 C-109.23437256 180.53859009 -109.82274902 180.89553955 -110.42895508 181.26330566 C-122.17896053 188.39316334 -133.88717381 195.58996786 -145.58496094 202.80517578 C-148.91170666 204.85482717 -152.24132932 206.89972996 -155.57177734 208.94335938 C-165.31914174 214.92688299 -175.05641974 220.9203085 -184.70849609 227.05664062 C-191.80901818 231.56965227 -198.99023525 235.93045669 -206.21606445 240.23950195 C-215.82740405 245.97874097 -225.32747295 251.89521666 -234.83349609 257.80664062 C-238.62408419 260.16254915 -242.41599454 262.51631393 -246.20849609 264.86914062 C-247.07015381 265.40531006 -247.93181152 265.94147949 -248.81958008 266.49389648 C-262.21857632 274.80664062 -262.21857632 274.80664062 -264.83349609 274.80664062 C-264.83349609 275.46664063 -264.83349609 276.12664062 -264.83349609 276.80664062 C-161.54349609 276.80664062 -58.25349609 276.80664062 48.16650391 276.80664062 C49.13278143 362.36184348 49.13278143 362.36184348 49.39770508 388.85754395 C49.40717709 389.80247856 49.41664911 390.74741317 49.42640816 391.72098217 C49.74483168 423.57366914 49.99668574 455.4265229 50.19897461 487.28015137 C50.20560135 488.32095962 50.21222809 489.36176788 50.21905564 490.43411577 C50.36276425 513.06166143 50.49572592 535.68925832 50.61763972 558.31693164 C50.67750421 569.41588894 50.73973985 580.51483238 50.80322266 591.61376953 C50.80949909 592.71816122 50.81577553 593.8225529 50.82224216 594.960411 C51.02625869 630.66371456 51.38638699 666.36333659 51.8287705 702.06441589 C52.28310472 738.7972483 52.57736132 775.52804937 52.67442343 812.26364369 C52.68825188 817.46953489 52.70388236 822.67541924 52.72061157 827.88130188 C52.72384788 828.90574638 52.72708418 829.93019089 52.73041856 830.98567916 C52.78682566 847.38142634 53.00854619 863.77083362 53.29444154 880.16400936 C53.5792991 896.70485858 53.684427 913.23952067 53.61457002 929.78272939 C53.58158237 938.72686925 53.62266562 947.65414457 53.8883667 956.59484673 C55.5641474 1015.0989328 55.5641474 1015.0989328 33.90817887 1038.54396638 C23.61298527 1049.3427269 12.12951002 1058.91854311 0.16650391 1067.80664062 C-18.50319304 1059.23979249 -43.17445099 1035.32086109 -51.37362546 1016.21845251 C-56.85053119 998.94762836 -55.83168776 979.95366552 -55.24358422 962.02472962 C-54.99657348 954.18226436 -55.02943576 946.34592874 -55.06587942 938.50052977 C-55.12569537 924.03656241 -54.97511977 909.58240989 -54.6970787 895.12129593 C-54.42322023 880.84054087 -54.24752342 866.56389099 -54.19784927 852.28052902 C-54.19468725 851.38672468 -54.19152523 850.49292034 -54.18826738 849.57203101 C-54.17270027 845.03133769 -54.15883802 840.49064086 -54.14563109 835.94994013 C-54.04945791 803.93325851 -53.74082604 771.92189586 -53.30371094 739.90820312 C-52.88002458 708.84175554 -52.55478153 677.77677281 -52.36035156 646.70800781 C-52.35430136 645.74740384 -52.34825115 644.78679987 -52.34201761 643.79708669 C-52.28135652 634.14876013 -52.22267044 624.50042239 -52.16543009 614.85207496 C-52.04881931 595.20390824 -51.91904185 575.55583578 -51.78128052 555.9078064 C-51.77496518 555.0047704 -51.76864984 554.10173441 -51.76214313 553.17133368 C-51.34016329 493.04755801 -50.6114348 432.92673594 -49.83349609 372.80664062 C-50.66436774 372.81499447 -51.49523939 372.82334832 -52.35128897 372.83195531 C-101.61083776 373.32442301 -150.87012521 373.70181731 -200.13164357 373.93007787 C-206.04829712 373.95759296 -211.96494569 373.98606809 -217.8815918 374.01513672 C-219.0594746 374.02090755 -220.2373574 374.02667838 -221.45093361 374.03262408 C-240.51594708 374.12831859 -259.57949907 374.30175582 -278.6436459 374.50400214 C-298.20978216 374.7098405 -317.77515384 374.8319543 -337.34232837 374.87658751 C-349.41444677 374.90675635 -361.48243473 375.00196708 -373.55328117 375.1808029 C-381.83432649 375.29723039 -390.11324164 375.33221697 -398.39504572 375.30367093 C-403.17303999 375.28959235 -407.94383037 375.31091191 -412.72053719 375.42916107 C-440.62779998 376.08664087 -440.62779998 376.08664087 -447.61122918 370.64030123 C-452.0633867 365.46716197 -454.67581206 359.80239604 -456.89171183 353.39428544 C-458.17066078 349.88024752 -459.93374156 346.97117723 -461.92724609 343.81445312 C-468.16576208 333.06774153 -474.30689083 322.27082417 -480.27099609 311.36914062 C-480.83302734 310.35029785 -481.39505859 309.33145508 -481.97412109 308.28173828 C-482.48330078 307.34249512 -482.99248047 306.40325195 -483.51708984 305.43554688 C-483.96624756 304.61127197 -484.41540527 303.78699707 -484.87817383 302.93774414 C-485.83349609 300.80664062 -485.83349609 300.80664062 -485.83349609 297.80664062 C-484.33081055 296.47900391 -484.33081055 296.47900391 -482.19677734 295.12695312 C-481.40303711 294.61729004 -480.60929688 294.10762695 -479.79150391 293.58251953 C-478.48197754 292.76533447 -478.48197754 292.76533447 -477.14599609 291.93164062 C-476.24333008 291.35720215 -475.34066406 290.78276367 -474.41064453 290.19091797 C-471.55973012 288.38284063 -468.69860735 286.59212341 -465.83349609 284.80664062 C-464.96837402 284.26652344 -464.10325195 283.72640625 -463.21191406 283.16992188 C-458.92203057 280.49648035 -454.62285896 277.83849389 -450.31787109 275.18945312 C-444.47196121 271.59018178 -438.65209268 267.94984746 -432.83349609 264.30664062 C-403.75005428 246.11283599 -403.75005428 246.11283599 -392.52099609 239.43164062 C-386.12996209 235.62732712 -379.82282618 231.69417145 -373.52099609 227.74414062 C-355.82302146 216.65141293 -338.01997769 205.73231584 -320.16967773 194.88671875 C-310.35491294 188.91806227 -300.59228436 182.86623591 -290.83349609 176.80664062 C-279.05873553 169.49525302 -267.25947634 162.22819789 -255.41333008 155.03295898 C-248.23781629 150.67094636 -241.09027617 146.26560252 -233.95410156 141.83959961 C-218.68247602 132.36857004 -203.37904801 122.94940854 -188.02099609 113.61914062 C-179.97574792 108.73131431 -171.95645476 103.80389214 -163.95727539 98.84106445 C-156.92629489 94.47947762 -149.8817975 90.14017428 -142.83349609 85.80664062 C-134.99276194 80.98518108 -127.15731451 76.15550238 -119.33349609 71.30664062 C-86.17836484 50.7657844 -86.17836484 50.7657844 -75.20849609 44.24414062 C-68.72968611 40.38347988 -62.34505664 36.3802604 -55.95849609 32.36914062 C-48.35093308 27.59346521 -40.71100993 22.90110918 -32.94580078 18.38647461 C-26.90162369 14.86856315 -20.93568288 11.22894154 -14.98242188 7.55957031 C-13.59407477 6.7054482 -12.2030624 5.85563921 -10.80908203 5.01074219 C-9.49564335 4.21021332 -8.19137829 3.39442884 -6.89697266 2.56347656 C-2.36336655 -0.24923919 -2.36336655 -0.24923919 0 0 Z " fill="#FEFEFE" transform="translate(1024.83349609375,289.193359375)"/>
<path d="M0 0 C196.02 0 392.04 0 594 0 C592 2 592 2 589.06347865 2.24724633 C587.1542327 2.24529406 587.1542327 2.24529406 585.20641613 2.24330235 C584.14111878 2.24631448 584.14111878 2.24631448 583.05430028 2.24938747 C580.65013323 2.25371354 578.24623454 2.24365088 575.84208679 2.23377991 C574.11053639 2.23393582 572.37898587 2.23497287 570.64743644 2.23682016 C565.86959538 2.2393632 561.091848 2.22938416 556.31402409 2.2174722 C551.16773634 2.20681582 546.02144954 2.20767252 540.87515259 2.2071991 C531.9475992 2.20483199 523.02007687 2.19523208 514.09253502 2.18089485 C501.16181993 2.16022913 488.23111819 2.15153513 475.30038879 2.1459735 C454.29277961 2.13670567 433.28518594 2.11923938 412.27758789 2.09594727 C411.01919736 2.09455395 409.76080684 2.09316064 408.46428327 2.0917251 C406.57448217 2.08963181 406.57448217 2.08963181 404.64650327 2.08749622 C386.83082471 2.06777661 369.01514564 2.04992823 351.19946289 2.03442383 C349.94836267 2.03333298 348.69726246 2.03224213 347.40825012 2.03111822 C326.50398799 2.01305769 305.59972427 1.99910837 284.69545776 1.98725218 C271.80968598 1.97968178 258.92392997 1.96796435 246.03816734 1.95079052 C237.19034005 1.93916814 228.34251404 1.93101886 219.49468084 1.92552502 C214.39851197 1.92221314 209.30235909 1.91724018 204.20619774 1.90771103 C178.1303887 1.77749445 178.1303887 1.77749445 152.08167744 2.79938412 C144.46127576 3.25743411 136.80756329 2.80910738 129.1875 2.5 C118.85276027 2.08561241 108.76037627 1.96349052 98.4465332 2.86132812 C95 3 95 3 91.92260742 2.46679688 C89.01979769 1.83884382 89.01979769 1.83884382 86.213974 2.49778748 C82.84374826 3.02441575 80.04328462 2.8931614 76.65380859 2.56860352 C68.6031282 1.91180453 60.60745418 1.87276302 52.5390625 1.90234375 C51.01207527 1.90421487 49.48508742 1.90563548 47.95809937 1.90663147 C43.98968776 1.91040213 40.02131429 1.92018403 36.05291748 1.93133545 C31.98320023 1.94166858 27.91347666 1.94615427 23.84375 1.95117188 C15.89581607 1.96181271 7.94791281 1.97882132 0 2 C0 1.34 0 0.68 0 0 Z " fill="#0E1C31" transform="translate(1210,1705)"/>
<path d="M0 0 C1.32 0 2.64 0 4 0 C4.495 0.99 4.495 0.99 5 2 C5.66 1.67 6.32 1.34 7 1 C9.33677859 0.83246646 11.67803994 0.7260271 14.01953125 0.6484375 C14.71511642 0.62528473 15.4107016 0.60213196 16.12736511 0.57827759 C17.60086798 0.53063308 19.07445047 0.48539958 20.5480957 0.44238281 C22.79345511 0.37556673 25.03824044 0.29766773 27.28320312 0.21875 C28.71612482 0.17380432 30.14906721 0.12951248 31.58203125 0.0859375 C33.53459839 0.0247876 33.53459839 0.0247876 35.52661133 -0.03759766 C38.53937484 -0.00498603 41.0711967 0.39988149 44 1 C44.66 0.67 45.32 0.34 46 0 C47.76015114 0.08781466 49.51715781 0.2425224 51.26953125 0.4296875 C58.08860097 1.06264696 64.84298605 1.14808436 71.6875 1.125 C72.84572266 1.12886719 74.00394531 1.13273438 75.19726562 1.13671875 C76.89979492 1.13478516 76.89979492 1.13478516 78.63671875 1.1328125 C79.64436279 1.13168457 80.65200684 1.13055664 81.69018555 1.12939453 C84.28755763 1.02785236 86.76652984 0.81187578 89.34082031 0.5 C93.87896339 -0.03273685 98.34450585 -0.14497845 102.91015625 -0.1328125 C103.72189804 -0.13376923 104.53363983 -0.13472595 105.36997986 -0.13571167 C107.07160521 -0.13638682 108.77323324 -0.13457942 110.47485352 -0.13037109 C113.05946703 -0.1250063 115.64390736 -0.13034245 118.22851562 -0.13671875 C119.89322954 -0.13605799 121.55794336 -0.13477686 123.22265625 -0.1328125 C123.98433609 -0.13483673 124.74601593 -0.13686096 125.53077698 -0.13894653 C129.13043592 -0.12342724 132.62553132 0.02879822 136.19628906 0.5 C139.39962013 0.92107972 142.41351147 1.12872695 145.63671875 1.1328125 C146.62607422 1.13410156 147.61542969 1.13539063 148.63476562 1.13671875 C150.14586914 1.13091797 150.14586914 1.13091797 151.6875 1.125 C152.70650391 1.12886719 153.72550781 1.13273438 154.77539062 1.13671875 C155.76087891 1.13542969 156.74636719 1.13414062 157.76171875 1.1328125 C159.091427 1.13112061 159.091427 1.13112061 160.44799805 1.12939453 C163.03431045 1.06177651 163.03431045 1.06177651 165.65942383 0.46044922 C168.38703137 -0.07613864 170.30929732 0.41822645 173 1 C173.66 0.67 174.32 0.34 175 0 C177.06589819 0.17215818 179.07901935 0.51278254 181.125 0.84375 C183.09091334 1.17118789 183.09091334 1.17118789 185 0 C188.12156659 0.14776647 191.21502224 0.39993898 194.32617188 0.68359375 C197.14176379 0.91196026 199.64583099 1.07781419 202.41796875 0.46875 C205 0 205 0 208.92016602 0.46679688 C214.57484629 1.13992498 220.17159817 1.10730534 225.859375 1.0625 C226.9667804 1.05871338 228.07418579 1.05492676 229.21514893 1.05102539 C232.72680702 1.03888611 236.2383799 1.020251 239.75 1 C244.39062276 0.97339891 249.03120471 0.95342316 253.671875 0.9375 C254.73339783 0.92920166 255.79492065 0.92090332 256.88861084 0.91235352 C257.88024231 0.90905029 258.87187378 0.90574707 259.89355469 0.90234375 C260.76131531 0.89710693 261.62907593 0.89187012 262.52313232 0.88647461 C267.44683693 1.11214895 269.40102724 1.40102724 273 5 C173.01 5 73.02 5 -30 5 C-30 4.34 -30 3.68 -30 3 C-16.72413793 -0.86206897 -16.72413793 -0.86206897 -11 2 C-10.443125 1.690625 -9.88625 1.38125 -9.3125 1.0625 C-6.13790266 -0.39609878 -3.4606386 -0.12359424 0 0 Z " fill="#01091B" transform="translate(800,560)"/>
<path d="M0 0 C70.29 0 140.58 0 213 0 C213 213.51 213 427.02 213 647 C212.67 647 212.34 647 212 647 C211.67 434.48 211.34 221.96 211 3 C206.71 3 202.42 3 198 3 C195.66469099 2.68080198 193.33075193 2.35092877 191 2 C188.72565433 2.10869035 186.45379942 2.28011648 184.1875 2.5 C176.82190231 3.09725874 169.56436392 2.89559687 162.1875 2.5625 C154.16372328 2.20082241 146.15786517 1.88685371 138.125 1.875 C137.35309326 1.87056885 136.58118652 1.8661377 135.78588867 1.86157227 C132.33851415 1.87056304 129.32477383 2.15990725 126 3 C124.22483723 2.88852981 122.45312875 2.71490364 120.6875 2.5 C114.53991392 1.89729548 108.68223006 2.26469856 102.54296875 2.84375 C99 3 99 3 95.85606384 2.51686096 C91.45047228 1.92634214 87.19732964 1.86737107 82.76000977 1.88647461 C81.41248375 1.88625557 81.41248375 1.88625557 80.03773499 1.8860321 C77.08893358 1.8867249 74.14019653 1.89448753 71.19140625 1.90234375 C69.13874852 1.90421018 67.08609034 1.90563302 65.03343201 1.90663147 C59.64615639 1.91043893 54.25890798 1.92025403 48.87164307 1.93133545 C43.3682085 1.94158771 37.8647695 1.94613725 32.36132812 1.95117188 C21.57420683 1.96187795 10.78710568 1.97893302 0 2 C0 1.34 0 0.68 0 0 Z " fill="#05172E" transform="translate(761,662)"/>
<path d="M0 0 C118.14 0 236.28 0 358 0 C358 0.99 358 1.98 358 3 C356.740044 2.97021844 355.48008801 2.94043688 354.18195152 2.90975285 C315.9741588 2.0266349 277.78756787 1.86183146 239.57178352 1.89646223 C231.2401754 1.9038021 222.90856887 1.90512881 214.57695799 1.90625793 C199.73245476 1.90841876 184.8879572 1.91499589 170.04345703 1.92456055 C155.66780627 1.93381318 141.29215707 1.940855 126.91650391 1.94506836 C126.02264432 1.94533108 125.12878473 1.94559381 124.20783849 1.94586449 C119.7212951 1.94717002 115.23475169 1.94843361 110.74820828 1.94967639 C73.83213487 1.959956 36.91606789 1.97749051 0 2 C0 1.34 0 0.68 0 0 Z " fill="#0E1C32" transform="translate(500,1705)"/>
<path d="M0 0 C1.32 0 2.64 0 4 0 C4.33 0.66 4.66 1.32 5 2 C5.66 1.67 6.32 1.34 7 1 C9.33677859 0.83246646 11.67803994 0.7260271 14.01953125 0.6484375 C15.06290901 0.61370834 15.06290901 0.61370834 16.12736511 0.57827759 C17.60086798 0.53063308 19.07445047 0.48539958 20.5480957 0.44238281 C22.79345511 0.37556673 25.03824044 0.29766773 27.28320312 0.21875 C28.71612482 0.17380432 30.14906721 0.12951248 31.58203125 0.0859375 C33.53459839 0.0247876 33.53459839 0.0247876 35.52661133 -0.03759766 C38.53937484 -0.00498603 41.0711967 0.39988149 44 1 C44.66 0.67 45.32 0.34 46 0 C47.76015114 0.08781466 49.51715781 0.2425224 51.26953125 0.4296875 C58.08860097 1.06264696 64.84298605 1.14808436 71.6875 1.125 C72.84572266 1.12886719 74.00394531 1.13273438 75.19726562 1.13671875 C76.89979492 1.13478516 76.89979492 1.13478516 78.63671875 1.1328125 C79.64436279 1.13168457 80.65200684 1.13055664 81.69018555 1.12939453 C84.28755763 1.02785236 86.76652984 0.81187578 89.34082031 0.5 C93.87896339 -0.03273685 98.34450585 -0.14497845 102.91015625 -0.1328125 C103.72189804 -0.13376923 104.53363983 -0.13472595 105.36997986 -0.13571167 C107.07160521 -0.13638682 108.77323324 -0.13457942 110.47485352 -0.13037109 C113.05946703 -0.1250063 115.64390736 -0.13034245 118.22851562 -0.13671875 C119.89322954 -0.13605799 121.55794336 -0.13477686 123.22265625 -0.1328125 C123.98433609 -0.13483673 124.74601593 -0.13686096 125.53077698 -0.13894653 C129.13043592 -0.12342724 132.62553132 0.02879822 136.19628906 0.5 C139.39962013 0.92107972 142.41351147 1.12872695 145.63671875 1.1328125 C146.62607422 1.13410156 147.61542969 1.13539063 148.63476562 1.13671875 C150.14586914 1.13091797 150.14586914 1.13091797 151.6875 1.125 C152.70650391 1.12886719 153.72550781 1.13273438 154.77539062 1.13671875 C155.76087891 1.13542969 156.74636719 1.13414062 157.76171875 1.1328125 C159.091427 1.13112061 159.091427 1.13112061 160.44799805 1.12939453 C163.03431045 1.06177651 163.03431045 1.06177651 165.65942383 0.46044922 C168.38703137 -0.07613864 170.30929732 0.41822645 173 1 C173.66 0.67 174.32 0.34 175 0 C177.06589819 0.17215818 179.07901935 0.51278254 181.125 0.84375 C183.09091334 1.17118789 183.09091334 1.17118789 185 0 C188.12156659 0.14776647 191.21502224 0.39993898 194.32617188 0.68359375 C197.14176379 0.91196026 199.64583099 1.07781419 202.41796875 0.46875 C205.51865366 -0.094158 208.23776525 0.38467844 211.342453 0.75424194 C216.23296196 1.20649433 221.12775994 1.1213474 226.03515625 1.09765625 C227.15442001 1.0962413 228.27368378 1.09482635 229.42686462 1.09336853 C232.97210458 1.08780879 236.51727941 1.07526385 240.0625 1.0625 C242.47851471 1.05747979 244.89453041 1.0529178 247.31054688 1.04882812 C253.20705315 1.03785257 259.10352192 1.02115496 265 1 C265.33 1.66 265.66 2.32 266 3 C231.25546253 3.04573826 196.51093192 3.08099926 161.76637087 3.10213066 C157.66814043 3.10463219 153.56991004 3.10722082 149.47167969 3.10986328 C148.65576648 3.1103879 147.83985326 3.11091252 146.99921541 3.11145304 C133.77327747 3.12016504 120.54735686 3.13593937 107.32142921 3.15430559 C93.7590118 3.17298256 80.19660349 3.18411205 66.63417375 3.18817699 C58.25968703 3.19092664 49.88524924 3.19962341 41.51077758 3.21583293 C35.77472948 3.22637265 30.03870683 3.2296075 24.30264975 3.22700275 C20.9890275 3.22571674 17.67550957 3.22882204 14.36189842 3.23841095 C10.77607746 3.24828336 7.19047014 3.2459972 3.60464478 3.24050903 C2.54824157 3.24633472 1.49183837 3.2521604 0.40342295 3.25816262 C-0.55152614 3.25418052 -1.50647523 3.25019842 -2.49036217 3.24609566 C-3.73318681 3.24723482 -3.73318681 3.24723482 -5.00111902 3.24839699 C-7 3 -7 3 -9 1 C-6.03325429 -0.48337286 -3.28247334 -0.05659437 0 0 Z " fill="#061530" transform="translate(800,560)"/>
<path d="M0 0 C66.66 0 133.32 0 202 0 C202 0.33 202 0.66 202 1 C197.36265726 2.16165521 192.86495952 2.17248747 188.11645508 2.20532227 C187.22559015 2.2152162 186.33472523 2.22511013 185.4168644 2.23530388 C182.45111368 2.26698 179.48534816 2.29176833 176.51953125 2.31640625 C174.41870283 2.33714451 172.31787786 2.35823427 170.21705627 2.37965393 C164.58213823 2.43560763 158.94718156 2.48505452 153.31218719 2.53263092 C149.81685751 2.56246281 146.32154483 2.59382999 142.82623291 2.62567139 C115.00809705 2.87797916 87.18957228 3.10067084 59.37017441 3.12293625 C57.41349873 3.12496018 55.45682531 3.12888255 53.50015259 3.13284302 C35.97759147 3.16127273 18.50634077 2.74164247 1 2 C0.67 1.34 0.34 0.68 0 0 Z " fill="#152132" transform="translate(924,1771)"/>
<path d="M0 0 C32.34 0 64.68 0 98 0 C97.67 0.66 97.34 1.32 97 2 C96.1440625 1.98839844 95.288125 1.97679687 94.40625 1.96484375 C87.41716225 1.91592014 80.45290234 1.96074352 73.46875 2.2578125 C48.62219633 3.29085678 23.85134992 2.67054854 -1 2 C-0.67 1.34 -0.34 0.68 0 0 Z " fill="#0C1C33" transform="translate(660,662)"/>
<path d="M0 0 C0 0.33 0 0.66 0 1 C-4.29 1 -8.58 1 -13 1 C-13.33 1.66 -13.66 2.32 -14 3 C-17.09765625 3.37890625 -17.09765625 3.37890625 -21.0625 3.5625 C-25.04623892 3.7575082 -28.8865514 3.98453498 -32.83984375 4.5234375 C-37.72451644 5.17110582 -42.58065772 5.10897634 -47.5 5.0625 C-48.4178125 5.05798828 -49.335625 5.05347656 -50.28125 5.04882812 C-52.52090391 5.03716326 -54.76041545 5.02079614 -57 5 C-57 4.67 -57 4.34 -57 4 C-51.45496635 3.41988518 -45.90894207 2.85077363 -40.36181641 2.29101562 C-38.48228924 2.09988814 -36.60304379 1.90596554 -34.72412109 1.70898438 C-23.09806082 0.49237583 -11.69526531 -0.29966516 0 0 Z " fill="#212E43" transform="translate(1696,1258)"/>
<path d="M0 0 C0.33 0.99 0.66 1.98 1 3 C-2.47750014 6.55169189 -5.9647666 10.09338919 -9.46142578 13.6262207 C-10.64938098 14.82925642 -11.83462895 16.03497173 -13.01708984 17.2434082 C-14.71787064 18.98060371 -16.42817535 20.70790934 -18.140625 22.43359375 C-18.66682434 22.97527695 -19.19302368 23.51696014 -19.73516846 24.07505798 C-24.31497381 28.65693794 -24.31497381 28.65693794 -28 29 C-22.61359076 22.44622903 -16.64114873 16.52753365 -10.625 10.5625 C-9.59221405 9.53474017 -8.55966009 8.50674715 -7.52734375 7.47851562 C-5.02089713 4.98298402 -2.5113292 2.49061918 0 0 Z " fill="#1A293E" transform="translate(1067,1314)"/>
<path d="M0 0 C0 0.33 0 0.66 0 1 C-0.87325928 1.02505615 -1.74651855 1.0501123 -2.64624023 1.07592773 C-5.87602552 1.17087709 -9.10564154 1.27012029 -12.33520508 1.37231445 C-13.73489199 1.41571434 -15.13463359 1.45738564 -16.53442383 1.49731445 C-18.54261495 1.55489445 -20.55061149 1.61914 -22.55859375 1.68359375 C-23.76829834 1.72025146 -24.97800293 1.75690918 -26.22436523 1.79467773 C-28.90705456 1.68938266 -28.90705456 1.68938266 -30 3 C-32.22035526 3.01682517 -34.4413099 2.96246113 -36.66015625 2.87890625 C-37.32462265 2.85529526 -37.98908905 2.83168427 -38.6736908 2.80735779 C-40.80350279 2.73056315 -42.93296546 2.64660787 -45.0625 2.5625 C-46.50323791 2.50929506 -47.94399305 2.45655457 -49.38476562 2.40429688 C-52.92339313 2.27492714 -56.46174141 2.13913259 -60 2 C-60 1.67 -60 1.34 -60 1 C-39.98777352 0.00547222 -20.0304532 -0.11735888 0 0 Z " fill="#546172" transform="translate(1736,1506)"/>
<path d="M0 0 C0.66 0 1.32 0 2 0 C3.42808918 1.88367591 4.76921391 3.8338427 6.0625 5.8125 C6.77535156 6.89144531 7.48820313 7.97039062 8.22265625 9.08203125 C10 12 10 12 11 15 C7.5222507 13.43988817 4.72775973 11.36827674 1.75 9 C0.85796875 8.29875 -0.0340625 7.5975 -0.953125 6.875 C-1.96632813 5.946875 -1.96632813 5.946875 -3 5 C-3 4.34 -3 3.68 -3 3 C-2.34 3 -1.68 3 -1 3 C-0.67 2.01 -0.34 1.02 0 0 Z " fill="#243144" transform="translate(919,1474)"/>
<path d="M0 0 C0.66 0 1.32 0 2 0 C0.49629937 4.43998092 -2.96822259 6.31607553 -6.75 8.6875 C-7.3584375 9.09033203 -7.966875 9.49316406 -8.59375 9.90820312 C-12.37901234 12.32252109 -15.43579612 13.58698155 -20 14 C-19.2890625 12.078125 -19.2890625 12.078125 -18 10 C-15.8359375 9.171875 -15.8359375 9.171875 -13.375 8.75 C-12.55773437 8.60046875 -11.74046875 8.4509375 -10.8984375 8.296875 C-9.95871094 8.14992188 -9.95871094 8.14992188 -9 8 C-9 7.34 -9 6.68 -9 6 C-7.28515625 4.74609375 -7.28515625 4.74609375 -5.0625 3.4375 C-2.37294547 1.9249593 -2.37294547 1.9249593 0 0 Z " fill="#0C1830" transform="translate(978,313)"/>
<path d="M0 0 C1.44331492 0.05840096 2.88667486 0.11570001 4.33007812 0.171875 C7.82482845 0.31024393 11.31873669 0.46342023 14.8125 0.625 C14.8125 0.955 14.8125 1.285 14.8125 1.625 C0.80873563 2.22772612 -13.168649 2.81558861 -27.1875 2.625 C-27.1875 2.295 -27.1875 1.965 -27.1875 1.625 C-18.05052876 -0.61644171 -9.30056166 -0.43413367 0 0 Z " fill="#6F7989" transform="translate(1706.1875,1450.375)"/>
<path d="M0 0 C8.51372785 -0.31274919 16.6030674 0.62707087 25 2 C23 4 23 4 19.8046875 4.01171875 C18.50789063 3.90472656 17.21109375 3.79773437 15.875 3.6875 C14.86264282 3.60737671 14.86264282 3.60737671 13.82983398 3.52563477 C9.20018454 3.14628315 4.59783292 2.65683327 0 2 C0 1.34 0 0.68 0 0 Z " fill="#2D3A4F" transform="translate(464,1197)"/>
<path d="M0 0 C-0.6496875 0.39832031 -1.299375 0.79664063 -1.96875 1.20703125 C-3.22171875 2.00173828 -3.22171875 2.00173828 -4.5 2.8125 C-5.3353125 3.33457031 -6.170625 3.85664062 -7.03125 4.39453125 C-7.6809375 4.92433594 -8.330625 5.45414063 -9 6 C-9 6.99 -9 7.98 -9 9 C-11.97 9 -14.94 9 -18 9 C-15.1062991 6.1062991 -12.50082041 4.32646701 -9 2.25 C-7.948125 1.61578125 -6.89625 0.9815625 -5.8125 0.328125 C-3 -1 -3 -1 0 0 Z " fill="#0E1729" transform="translate(779,556)"/>
<path d="M0 0 C-1.34034706 4.02104119 -3.91663705 5.16305684 -7.375 7.25 C-8.26058594 7.81460937 -8.26058594 7.81460937 -9.1640625 8.390625 C-10.72594869 9.34745618 -12.36087978 10.18250427 -14 11 C-14.99 10.67 -15.98 10.34 -17 10 C-14.87001347 7.72403308 -12.71820831 6.06354789 -10.0625 4.4375 C-9.39347656 4.02371094 -8.72445312 3.60992187 -8.03515625 3.18359375 C-2.56105611 0 -2.56105611 0 0 0 Z " fill="#0F1B32" transform="translate(774,440)"/>
<path d="M0 0 C-1.32 1.32 -2.64 2.64 -4 4 C-2.02 4 -0.04 4 2 4 C2 4.33 2 4.66 2 5 C-3.61 5 -9.22 5 -15 5 C-12.91806813 2.91806813 -11.28020285 2.03424616 -8.625 0.8125 C-7.85414062 0.44769531 -7.08328125 0.08289062 -6.2890625 -0.29296875 C-3.72666635 -1.08442558 -2.48946307 -0.89234179 0 0 Z " fill="#182438" transform="translate(1182,1601)"/>
<path d="M0 0 C0.33 0.99 0.66 1.98 1 3 C-0.0390625 4.6484375 -0.0390625 4.6484375 -1.625 6.375 C-2.181875 6.9834375 -2.73875 7.591875 -3.3125 8.21875 C-3.869375 8.8065625 -4.42625 9.394375 -5 10 C-5.86625 10.94875 -6.7325 11.8975 -7.625 12.875 C-9.99538475 14.99587056 -11.00682574 15.40641692 -14 16 C-9.40525596 10.60117576 -4.72323727 5.28666913 0 0 Z " fill="#222E45" transform="translate(1143,1543)"/>
<path d="M0 0 C19.34042553 -0.19148936 19.34042553 -0.19148936 29 1 C29 1.33 29 1.66 29 2 C19.04974625 3.41872597 9.86096749 2.4137169 0 1 C0 0.67 0 0.34 0 0 Z " fill="#323F53" transform="translate(347,1258)"/>
<path d="M0 0 C1.32 0.33 2.64 0.66 4 1 C-1.61 4.63 -7.22 8.26 -13 12 C-13.33 11.01 -13.66 10.02 -14 9 C-13.278125 8.5875 -12.55625 8.175 -11.8125 7.75 C-8.94312027 6.06178712 -8.94312027 6.06178712 -6.4375 3.8125 C-4 2 -4 2 0 2 C0 1.34 0 0.68 0 0 Z " fill="#17243B" transform="translate(796,425)"/>
<path d="M0 0 C0 0.66 0 1.32 0 2 C-8.14684214 2.6976874 -15.88303369 3.28162626 -24 2 C-24 1.67 -24 1.34 -24 1 C-15.97497656 0.20318916 -8.06350113 -0.12867289 0 0 Z " fill="#2C394D" transform="translate(1568,1513)"/>
<path d="M0 0 C5.08938811 1.59043379 8.87456643 4.7446951 13 8 C10 9 10 9 7.51953125 7.890625 C6.62621094 7.34921875 5.73289062 6.8078125 4.8125 6.25 C3.91144531 5.71890625 3.01039062 5.1878125 2.08203125 4.640625 C1.39496094 4.09921875 0.70789062 3.5578125 0 3 C0 2.01 0 1.02 0 0 Z " fill="#101F36" transform="translate(1411,523)"/>
<path d="M0 0 C1.4835001 0.42257276 2.96176424 0.86356322 4.4375 1.3125 C5.67306641 1.67794922 5.67306641 1.67794922 6.93359375 2.05078125 C7.61550781 2.36402344 8.29742188 2.67726563 9 3 C9.33 3.99 9.66 4.98 10 6 C12.97 6.495 12.97 6.495 16 7 C16 7.99 16 8.98 16 10 C12.35524815 8.63649571 9.08755513 6.998536 5.75 5 C4.44289063 4.2265625 4.44289063 4.2265625 3.109375 3.4375 C1 2 1 2 0 0 Z " fill="#0D1930" transform="translate(1102,335)"/>
<path d="M0 0 C0 0.33 0 0.66 0 1 C-4.29 1 -8.58 1 -13 1 C-13.33 1.66 -13.66 2.32 -14 3 C-18.16138263 3.08159574 -21.9472484 2.98248524 -26 2 C-26 1.67 -26 1.34 -26 1 C-17.33003296 -0.16711095 -8.72630608 -0.09744014 0 0 Z " fill="#434F61" transform="translate(1696,1258)"/>
<path d="M0 0 C-1.6009131 1.15037471 -3.20585225 2.29514816 -4.8125 3.4375 C-6.15248047 4.39462891 -6.15248047 4.39462891 -7.51953125 5.37109375 C-10 7 -10 7 -13 8 C-12.62642278 5.39611102 -12.28877098 4.25705243 -10.29296875 2.48046875 C-9.59816406 2.05378906 -8.90335938 1.62710938 -8.1875 1.1875 C-7.50042969 0.74792969 -6.81335938 0.30835938 -6.10546875 -0.14453125 C-3.60705494 -1.15965671 -2.48957835 -0.91191297 0 0 Z " fill="#0F1A31" transform="translate(582,560)"/>
<path d="M0 0 C0.33 0.66 0.66 1.32 1 2 C0.28972656 2.06058594 -0.42054688 2.12117187 -1.15234375 2.18359375 C-2.07144531 2.26738281 -2.99054687 2.35117187 -3.9375 2.4375 C-5.31228516 2.55931641 -5.31228516 2.55931641 -6.71484375 2.68359375 C-8.96159732 2.76044976 -8.96159732 2.76044976 -10 4 C-12.33297433 4.04092937 -14.66705225 4.04241723 -17 4 C-17 3.34 -17 2.68 -17 2 C-11.16200408 0.30167391 -6.06892629 -0.25287193 0 0 Z " fill="#031128" transform="translate(787,561)"/>
<path d="M0 0 C0 0.33 0 0.66 0 1 C-2.60444348 1.05394705 -5.20776998 1.09364469 -7.8125 1.125 C-8.55048828 1.14175781 -9.28847656 1.15851563 -10.04882812 1.17578125 C-13.91246426 1.21074628 -15.70903668 1.19397555 -19 -1 C-12.23893038 -2.27567351 -6.68650564 -1.48725585 0 0 Z " fill="#15243A" transform="translate(450,1326)"/>
<path d="M0 0 C1.75070517 0.11470137 3.50057536 0.24219028 5.25 0.375 C6.22453125 0.44460938 7.1990625 0.51421875 8.203125 0.5859375 C10.89633189 0.98465249 12.66963279 1.63507063 15 3 C14.67 3.33 14.34 3.66 14 4 C11.85546875 3.94921875 11.85546875 3.94921875 9.1875 3.6875 C7.87845703 3.56955078 7.87845703 3.56955078 6.54296875 3.44921875 C4.01386775 3.00244976 2.21786452 2.26661261 0 1 C0 0.67 0 0.34 0 0 Z " fill="#28364C" transform="translate(583,1216)"/>
<path d="M0 0 C3.77727089 1.81309003 7.37269822 3.9073259 11 6 C10.01 6.66 9.02 7.32 8 8 C5.03 6.35 2.06 4.7 -1 3 C-0.67 2.01 -0.34 1.02 0 0 Z " fill="#17243C" transform="translate(1452,548)"/>
<path d="M0 0 C5.94 0.33 11.88 0.66 18 1 C18 1.33 18 1.66 18 2 C10.41 2.33 2.82 2.66 -5 3 C-5 2.67 -5 2.34 -5 2 C-3.35 2 -1.7 2 0 2 C0 1.34 0 0.68 0 0 Z " fill="#4E5969" transform="translate(1620,1453)"/>
<path d="M0 0 C-4.62 2.97 -9.24 5.94 -14 9 C-14.33 8.01 -14.66 7.02 -15 6 C-14.01 6 -13.02 6 -12 6 C-12 5.34 -12 4.68 -12 4 C-10.56988027 3.13353333 -9.13059381 2.28218171 -7.6875 1.4375 C-6.88699219 0.96183594 -6.08648438 0.48617188 -5.26171875 -0.00390625 C-3 -1 -3 -1 0 0 Z " fill="#1A263A" transform="translate(693,492)"/>
<path d="M0 0 C0.66 0 1.32 0 2 0 C0.59155282 3.21524305 -1.10344786 5.32183868 -3.625 7.75 C-4.57246094 8.67039062 -4.57246094 8.67039062 -5.5390625 9.609375 C-6.02117187 10.06828125 -6.50328125 10.5271875 -7 11 C-7.66 10.34 -8.32 9.68 -9 9 C-8.01 8.67 -7.02 8.34 -6 8 C-4.79117904 5.99983534 -4.79117904 5.99983534 -4 4 C-3.34 4 -2.68 4 -2 4 C-1.34 2.68 -0.68 1.36 0 0 Z " fill="#2B3749" transform="translate(1109,1381)"/>
<path d="M0 0 C5 2 5 2 10 4 C10 4.99 10 5.98 10 7 C5.1746274 6.58639663 3.13078071 4.5780351 0 1 C0 0.67 0 0.34 0 0 Z " fill="#08162D" transform="translate(1472,561)"/>
<path d="M0 0 C-4.29 2.64 -8.58 5.28 -13 8 C-13.33 7.34 -13.66 6.68 -14 6 C-13.34 6 -12.68 6 -12 6 C-12 5.34 -12 4.68 -12 4 C-11.01 4 -10.02 4 -9 4 C-9 3.34 -9 2.68 -9 2 C-5.33876089 -0.74592933 -4.63002084 -1.15750521 0 0 Z " fill="#1C293F" transform="translate(877,379)"/>
<path d="M0 0 C-1.42859407 1.03325986 -2.86822383 2.05127634 -4.3125 3.0625 C-5.51326172 3.91521484 -5.51326172 3.91521484 -6.73828125 4.78515625 C-7.48464844 5.18605469 -8.23101563 5.58695312 -9 6 C-9.99 5.67 -10.98 5.34 -12 5 C-8.44416617 1.04907352 -5.38741645 -1.79580548 0 0 Z " fill="#111D33" transform="translate(917,354)"/>
<path d="M0 0 C0 0.66 0 1.32 0 2 C-4.96073422 3.32286246 -9.91111512 3.08893197 -15 3 C-15 2.67 -15 2.34 -15 2 C-9.92523206 0.73694665 -5.27203646 -0.27036084 0 0 Z " fill="#2C394D" transform="translate(1492,1284)"/>
<path d="M0 0 C3.34249629 0.59687434 5.46436342 1.73603877 8 4 C8 4.66 8 5.32 8 6 C8.66 6.33 9.32 6.66 10 7 C5.61537866 6.49890042 3.1999003 5.01704885 0 2 C0 1.34 0 0.68 0 0 Z " fill="#0E1E36" transform="translate(1495,576)"/>
<path d="M0 0 C1.65161581 0.75836443 3.29617138 1.53212076 4.9375 2.3125 C5.85402344 2.74175781 6.77054688 3.17101562 7.71484375 3.61328125 C10 5 10 5 11 8 C7.90694578 7.39096941 5.80360238 6.40131197 3.25 4.5625 C2.63640625 4.13066406 2.0228125 3.69882812 1.390625 3.25390625 C0.70226563 2.63322266 0.70226563 2.63322266 0 2 C0 1.34 0 0.68 0 0 Z " fill="#0D1930" transform="translate(1483,568)"/>
<path d="M0 0 C-1.13499394 3.29148243 -1.99283376 3.9959869 -5.125 5.75 C-6.548125 6.36875 -6.548125 6.36875 -8 7 C-8.66 6.34 -9.32 5.68 -10 5 C-8.71186658 4.16121545 -7.41936744 3.32913217 -6.125 2.5 C-5.40570312 2.0359375 -4.68640625 1.571875 -3.9453125 1.09375 C-2 0 -2 0 0 0 Z " fill="#0D1A32" transform="translate(655,513)"/>
<path d="M0 0 C2.66666667 1.33333333 5.33333333 2.66666667 8 4 C8 4.66 8 5.32 8 6 C8.99 6.33 9.98 6.66 11 7 C10.67 7.66 10.34 8.32 10 9 C8.32572385 8.07615834 6.66071997 7.13549431 5 6.1875 C4.071875 5.66542969 3.14375 5.14335937 2.1875 4.60546875 C1.1046875 3.81076172 1.1046875 3.81076172 0 3 C0 2.01 0 1.02 0 0 Z " fill="#18283D" transform="translate(1218,405)"/>
<path d="M0 0 C0.99 0.33 1.98 0.66 3 1 C0.69 3.31 -1.62 5.62 -4 8 C-4.33 7.01 -4.66 6.02 -5 5 C-3.35 3.35 -1.7 1.7 0 0 Z " fill="#0A1830" transform="translate(1160,1527)"/>
<path d="M0 0 C1.60407328 -0.02708567 3.2082785 -0.04643483 4.8125 -0.0625 C5.70582031 -0.07410156 6.59914063 -0.08570313 7.51953125 -0.09765625 C10 0 10 0 13 1 C13 1.66 13 2.32 13 3 C11.02013918 2.88652381 9.04108402 2.7589065 7.0625 2.625 C5.96035156 2.55539062 4.85820313 2.48578125 3.72265625 2.4140625 C2.82417969 2.27742188 1.92570313 2.14078125 1 2 C0.67 1.34 0.34 0.68 0 0 Z " fill="#233247" transform="translate(634,1474)"/>
<path d="M0 0 C-6.07439825 4.90153173 -6.07439825 4.90153173 -9.9375 5.3125 C-10.618125 5.209375 -11.29875 5.10625 -12 5 C-4.28571429 -1.42857143 -4.28571429 -1.42857143 0 0 Z " fill="#121D32" transform="translate(779,556)"/>
<path d="M0 0 C3.55780196 0.60990891 6.6828589 1.5783681 10 3 C10 3.33 10 3.66 10 4 C2.57142857 4.28571429 2.57142857 4.28571429 -1 2 C-0.67 1.34 -0.34 0.68 0 0 Z " fill="#172336" transform="translate(871,1602)"/>
<path d="M0 0 C1.17755859 -0.00773437 1.17755859 -0.00773437 2.37890625 -0.015625 C4.4375 0.25 4.4375 0.25 6.4375 2.25 C-2.97252278 3.58257403 -2.97252278 3.58257403 -7.5625 2.25 C-4.42838698 0.16059132 -3.58799528 -0.02364412 0 0 Z " fill="#1D2A3F" transform="translate(395.5625,1260.75)"/>
<path d="M0 0 C-0.33 0.99 -0.66 1.98 -1 3 C-4.4375 4.125 -4.4375 4.125 -8 5 C-8.99 5.495 -8.99 5.495 -10 6 C-10.66 5.34 -11.32 4.68 -12 4 C-10.3767313 3.3291288 -8.75132422 2.66342971 -7.125 2 C-6.22007813 1.62875 -5.31515625 1.2575 -4.3828125 0.875 C-2 0 -2 0 0 0 Z " fill="#222F43" transform="translate(1228,1579)"/>
<path d="M0 0 C3.3 0 6.6 0 10 0 C10.33 0.66 10.66 1.32 11 2 C7.7 2.33 4.4 2.66 1 3 C0.67 2.01 0.34 1.02 0 0 Z " fill="#28364B" transform="translate(1489,1519)"/>
<path d="M0 0 C-0.5625 1.9375 -0.5625 1.9375 -2 4 C-5.625 4.75 -5.625 4.75 -9 5 C-4.32258065 0 -4.32258065 0 0 0 Z " fill="#0B1930" transform="translate(699,486)"/>
<path d="M0 0 C2.31 0.33 4.62 0.66 7 1 C7 2.32 7 3.64 7 5 C1.125 2.25 1.125 2.25 0 0 Z " fill="#0C1B32" transform="translate(1030,291)"/>
<path d="M0 0 C-1.49097658 3.7952131 -3.75700849 5.61042731 -7 8 C-7.66 7.67 -8.32 7.34 -9 7 C-7.88121617 5.82737096 -6.75476949 4.66204862 -5.625 3.5 C-4.68527344 2.52546875 -4.68527344 2.52546875 -3.7265625 1.53125 C-2 0 -2 0 0 0 Z " fill="#293449" transform="translate(1170,1427)"/>
<path d="M0 0 C0.80824219 0.10183594 1.61648438 0.20367188 2.44921875 0.30859375 C3.06410156 0.39238281 3.67898438 0.47617188 4.3125 0.5625 C4.3125 0.8925 4.3125 1.2225 4.3125 1.5625 C-1.6275 2.0575 -1.6275 2.0575 -7.6875 2.5625 C-7.6875 1.9025 -7.6875 1.2425 -7.6875 0.5625 C-4.59271121 -0.46909626 -3.16118607 -0.41232862 0 0 Z " fill="#2F3D52" transform="translate(1571.6875,1329.4375)"/>
<path d="M0 0 C-3.63 1.98 -7.26 3.96 -11 6 C-10.34 4.68 -9.68 3.36 -9 2 C-8.01 2 -7.02 2 -6 2 C-6 1.34 -6 0.68 -6 0 C-3 -1 -3 -1 0 0 Z " fill="#202F45" transform="translate(1214,1308)"/>
<path d="M0 0 C4.08718695 -0.24042276 7.17679443 0.57741188 11 2 C11 2.66 11 3.32 11 4 C7.37 3.34 3.74 2.68 0 2 C0 1.34 0 0.68 0 0 Z " fill="#344155" transform="translate(640,1229)"/>
<path d="M0 0 C0.66 0 1.32 0 2 0 C2.45732667 5.71658336 1.52273754 8.48649253 -2 13 C-3 10 -3 10 -1.5625 7.0625 C-0.7890625 5.5465625 -0.7890625 5.5465625 0 4 C0 2.68 0 1.36 0 0 Z " fill="#0B1A33" transform="translate(1509,586)"/>
<path d="M0 0 C2.475 0.99 2.475 0.99 5 2 C5 2.66 5 3.32 5 4 C6.32 4.33 7.64 4.66 9 5 C8.34 5.66 7.68 6.32 7 7 C1.125 3.375 1.125 3.375 0 0 Z " fill="#0B1A32" transform="translate(1319,467)"/>
<path d="M0 0 C0.66 0 1.32 0 2 0 C0.6062718 4.43458973 -1.60582235 6.87378374 -5 10 C-4.38479725 6.00118212 -2.39731331 3.19641774 0 0 Z " fill="#111F34" transform="translate(1063,1434)"/>
<path d="M0 0 C0.33 0.66 0.66 1.32 1 2 C-7.57142857 3.42857143 -7.57142857 3.42857143 -11 1 C-7.26562152 0.12132271 -3.83225427 -0.08912219 0 0 Z " fill="#2E3B51" transform="translate(1480,1399)"/>
<path d="M0 0 C0 0.66 0 1.32 0 2 C-4.3164922 2.76173392 -7.74433453 3.16063604 -12 2 C-12 1.67 -12 1.34 -12 1 C-7.93631321 0.22596442 -4.13574827 -0.0984702 0 0 Z " fill="#334055" transform="translate(1522,1392)"/>
<path d="M0 0 C-3.53411321 2.12046792 -6.94393835 2.53199289 -11 3 C-11 2.34 -11 1.68 -11 1 C-6.87831311 -0.62950412 -4.29299643 -1.26264601 0 0 Z " fill="#2B394E" transform="translate(1401,1360)"/>
<path d="M0 0 C1.32 0.66 2.64 1.32 4 2 C4 2.66 4 3.32 4 4 C4.99 4.33 5.98 4.66 7 5 C6.67 5.66 6.34 6.32 6 7 C3.36 5.35 0.72 3.7 -2 2 C-1.34 1.34 -0.68 0.68 0 0 Z " fill="#1C283D" transform="translate(1437,539)"/>
<path d="M0 0 C5.75 1.625 5.75 1.625 8 5 C7.01 5.495 7.01 5.495 6 6 C3.96166576 4.7260411 1.96147874 3.38938077 0 2 C0 1.34 0 0.68 0 0 Z " fill="#0A182F" transform="translate(1252,426)"/>
<path d="M0 0 C4.75 0.875 4.75 0.875 7 2 C7 2.66 7 3.32 7 4 C8.32 4.33 9.64 4.66 11 5 C4.6 4.50769231 4.6 4.50769231 1.5625 1.9375 C1.046875 1.298125 0.53125 0.65875 0 0 Z " fill="#0E1B34" transform="translate(1079,321)"/>
<path d="M0 0 C2.25 -0.3125 2.25 -0.3125 5 0 C7.3125 2.5 7.3125 2.5 9 5 C4.68607774 4.5206753 2.83430453 3.2542015 0 0 Z " fill="#0E1C32" transform="translate(1040,297)"/>
<path d="M0 0 C0.66 0 1.32 0 2 0 C1.40072174 3.35595828 0.15377564 5.37801226 -2 8 C-2.66 7.67 -3.32 7.34 -4 7 C-2.68 4.69 -1.36 2.38 0 0 Z " fill="#1F2C42" transform="translate(1185,1711)"/>
<path d="M0 0 C-1.39332574 3.36720387 -2.9789286 4.9859524 -6 7 C-6.66 6.67 -7.32 6.34 -8 6 C-7.0479279 4.99403703 -6.08812654 3.99538437 -5.125 3 C-4.59132813 2.443125 -4.05765625 1.88625 -3.5078125 1.3125 C-2 0 -2 0 0 0 Z " fill="#263247" transform="translate(1155,1533)"/>
<path d="M0 0 C-3.85756507 2.15305957 -6.55129785 3.39253254 -11 3 C-4.23255814 -1.51162791 -4.23255814 -1.51162791 0 0 Z " fill="#253247" transform="translate(1296,1450)"/>
<path d="M0 0 C3.37462715 0.54723683 5.08235 1.0549 8 3 C8 3.66 8 4.32 8 5 C2.25 3.125 2.25 3.125 0 2 C0 1.34 0 0.68 0 0 Z " fill="#2D3B50" transform="translate(807,1291)"/>
<path d="M0 0 C3.12290635 0.48578543 5.99580359 0.9986012 9 2 C9 2.66 9 3.32 9 4 C4.545 3.01 4.545 3.01 0 2 C0 1.34 0 0.68 0 0 Z " fill="#2C394D" transform="translate(694,1245)"/>
<path d="M0 0 C2.64 0.33 5.28 0.66 8 1 C8 1.33 8 1.66 8 2 C3.23692563 2.95261487 -1.1666528 3.08333357 -6 3 C-6 2.67 -6 2.34 -6 2 C-4.02 2 -2.04 2 0 2 C0 1.34 0 0.68 0 0 Z " fill="#546072" transform="translate(1627,1191)"/>
<path d="M0 0 C-0.5625 1.9375 -0.5625 1.9375 -2 4 C-5.625 4.75 -5.625 4.75 -9 5 C-2.40909091 0 -2.40909091 0 0 0 Z " fill="#0D1A33" transform="translate(629,529)"/>
<path d="M0 0 C-5.14285714 4.42857143 -5.14285714 4.42857143 -9 5 C-6.81610567 0.16423399 -5.20641855 -0.13701101 0 0 Z " fill="#0B1930" transform="translate(979,433)"/>
<path d="M0 0 C2.95409701 1.37154504 5.44008376 2.98863724 8 5 C7.67 5.66 7.34 6.32 7 7 C3.535 5.02 3.535 5.02 0 3 C0 2.01 0 1.02 0 0 Z " fill="#1A283E" transform="translate(1236,416)"/>
<path d="M0 0 C4.75 1.875 4.75 1.875 7 3 C7 3.66 7 4.32 7 5 C4.625 4.75 4.625 4.75 2 4 C0.6875 1.9375 0.6875 1.9375 0 0 Z " fill="#0E1D35" transform="translate(1094,329)"/>
<path d="M0 0 C0.66 1.32 1.32 2.64 2 4 C0.68 5.32 -0.64 6.64 -2 8 C-2.66 7.67 -3.32 7.34 -4 7 C-2.68 4.69 -1.36 2.38 0 0 Z " fill="#2E3542" transform="translate(1124,1480)"/>
<path d="M0 0 C1 3 1 3 0.22265625 4.82421875 C-0.8515625 6.54947917 -1.92578125 8.27473958 -3 10 C-3.75 8.375 -3.75 8.375 -4 6 C-2.0625 2.75 -2.0625 2.75 0 0 Z " fill="#1E2D40" transform="translate(1053,1450)"/>
<path d="M0 0 C0 0.66 0 1.32 0 2 C-2.64 2.33 -5.28 2.66 -8 3 C-8 2.34 -8 1.68 -8 1 C-5.10765685 0.17361624 -3.11257569 0 0 0 Z " fill="#29364B" transform="translate(1382,1420)"/>
<path d="M0 0 C0.66 0 1.32 0 2 0 C1.375 1.875 1.375 1.875 0 4 C-3.125 5.25 -3.125 5.25 -6 6 C-4 4 -2 2 0 0 Z " fill="#27344B" transform="translate(1194,1405)"/>
<path d="M0 0 C2.35171131 0.59861742 4.6859378 1.26924352 7 2 C7.33 2.66 7.66 3.32 8 4 C5.36 3.67 2.72 3.34 0 3 C0 2.01 0 1.02 0 0 Z " fill="#303D52" transform="translate(624,1224)"/>
<path d="M0 0 C0 0.99 0 1.98 0 3 C-1.98 3.99 -3.96 4.98 -6 6 C-6.33 5.01 -6.66 4.02 -7 3 C-4.69 2.01 -2.38 1.02 0 0 Z " fill="#111E34" transform="translate(607,542)"/>
<path d="M0 0 C2.86724686 0.57344937 3.8614515 0.8614515 6 3 C7.31747324 3.69748583 8.64914193 4.36959957 10 5 C9.01 5.33 8.02 5.66 7 6 C5.17578125 5.0390625 5.17578125 5.0390625 3.3125 3.625 C2.68988281 3.16351562 2.06726562 2.70203125 1.42578125 2.2265625 C0.95527344 1.82179688 0.48476562 1.41703125 0 1 C0 0.67 0 0.34 0 0 Z " fill="#0F1C32" transform="translate(1386,509)"/>
<path d="M0 0 C1.2065625 0.0309375 1.2065625 0.0309375 2.4375 0.0625 C0.30969421 2.40308637 -1.67812221 3.76950306 -4.5625 5.0625 C-3.43829114 0.08386076 -3.43829114 0.08386076 0 0 Z " fill="#1A273D" transform="translate(716.5625,474.9375)"/>
<path d="M0 0 C0.86625 0.3403125 0.86625 0.3403125 1.75 0.6875 C0 2.25 0 2.25 -2.25 3.6875 C-4.5 3.375 -4.5 3.375 -6.25 2.6875 C-2.80384615 -0.38942308 -2.80384615 -0.38942308 0 0 Z " fill="#0E1D35" transform="translate(1012.25,411.3125)"/>
<path d="M0 0 C2.4375 0.75 2.4375 0.75 5 2 C5.8125 4.125 5.8125 4.125 6 6 C4.02 5.01 2.04 4.02 0 3 C0 2.01 0 1.02 0 0 Z " fill="#19273F" transform="translate(1210,400)"/>
<path d="M0 0 C-2.31 1.32 -4.62 2.64 -7 4 C-6.625 2.0625 -6.625 2.0625 -6 0 C-3.50907189 -1.24546405 -2.58919267 -0.7767578 0 0 Z " fill="#112037" transform="translate(1010,297)"/>
</svg>
